<svg xmlns="http://www.w3.org/2000/svg" width="1460" height="555" viewBox="0 0 1460 555">
  <metadata><?xpacket begin="﻿" id="W5M0MpCehiHzreSzNTczkc9d"?>
<x:xmpmeta xmlns:x="adobe:ns:meta/" x:xmptk="Adobe XMP Core 5.6-c138 79.159824, 2016/09/14-01:09:01        ">
   <rdf:RDF xmlns:rdf="http://www.w3.org/1999/02/22-rdf-syntax-ns#">
      <rdf:Description rdf:about=""/>
   </rdf:RDF>
</x:xmpmeta>
                                                                                                    
                                                                                                    
                                                                                                    
                                                                                                    
                                                                                                    
                                                                                                    
                                                                                                    
                                                                                                    
                                                                                                    
                                                                                                    
                                                                                                    
                                                                                                    
                                                                                                    
                                                                                                    
                                                                                                    
                                                                                                    
                                                                                                    
                                                                                                    
                                                                                                    
                                                                                                    
                           
<?xpacket end="w"?></metadata>
<defs>
    <style>
      .cls-1 {
        fill-rule: evenodd;
      }
    </style>
  </defs>
  <path id="Rectangle_1_copy_2" data-name="Rectangle 1 copy 2" class="cls-1" d="M1399,433h-61V555h-61V30a25,25,0,0,1,25-25h133a25,25,0,0,1,25,25V377a25,25,0,0,1-25,25,25,25,0,0,1,25,25V555h-61V433Zm0-367h-61V372h61V66ZM1091,555h-36a25,25,0,0,1-25-25V30a25,25,0,0,1,25-25h133a25,25,0,0,1,25,25V408a25,25,0,0,1-25,25h-97v61h122v61H1091Zm61-183V66h-61V372h61ZM909,525a25,25,0,0,1-25,25H812a25,25,0,0,1-25-25V208a25,25,0,0,1,25-25h97V0h61V550H909V525Zm0-281H848V489h61V244ZM700,550H567a25,25,0,0,1-25-25V25A25,25,0,0,1,567,0H700a25,25,0,0,1,25,25V525A25,25,0,0,1,700,550ZM664,428V61H603V489h61V428ZM463,550H330a25,25,0,0,1-25-25V25A25,25,0,0,1,330,0H463a25,25,0,0,1,25,25V367H427V61H366V489h61V428h61v97A25,25,0,0,1,463,550ZM122,525a25,25,0,0,1-25,25H25A25,25,0,0,1,0,525V208a25,25,0,0,1,25-25H158a25,25,0,0,1,25,25V550H122V525Zm0-281H61V489h61V244Z"/>
</svg>
