<svg xmlns="http://www.w3.org/2000/svg" width="1948" height="556" viewBox="0 0 1948 556">
  <metadata><?xpacket begin="﻿" id="W5M0MpCehiHzreSzNTczkc9d"?>
<x:xmpmeta xmlns:x="adobe:ns:meta/" x:xmptk="Adobe XMP Core 5.6-c138 79.159824, 2016/09/14-01:09:01        ">
   <rdf:RDF xmlns:rdf="http://www.w3.org/1999/02/22-rdf-syntax-ns#">
      <rdf:Description rdf:about=""/>
   </rdf:RDF>
</x:xmpmeta>
                                                                                                    
                                                                                                    
                                                                                                    
                                                                                                    
                                                                                                    
                                                                                                    
                                                                                                    
                                                                                                    
                                                                                                    
                                                                                                    
                                                                                                    
                                                                                                    
                                                                                                    
                                                                                                    
                                                                                                    
                                                                                                    
                                                                                                    
                                                                                                    
                                                                                                    
                                                                                                    
                           
<?xpacket end="w"?></metadata>
<defs>
    <style>
      .cls-1 {
        fill-rule: evenodd;
      }
    </style>
  </defs>
  <path id="Rectangle_1_copy_7" data-name="Rectangle 1 copy 7" class="cls-1" d="M1826,550h-36a25,25,0,0,1-25-25V25a25,25,0,0,1,25-25h133a25,25,0,0,1,25,25V403a25,25,0,0,1-25,25h-97v61h122v61H1826Zm61-183V61h-61V367h61ZM1643,550h-61L1521,0h61l30.57,275.66L1643,0h61l-60.71,550H1643ZM1399,305h61V551h-61V305Zm0-183h61V244h-61V122Zm-61,428h-61V61H1023V0h437V61H1338V550Zm-498,0H804a25,25,0,0,1-25-25V25A25,25,0,0,1,804,0H937a25,25,0,0,1,25,25V403a25,25,0,0,1-25,25H840v61H962v61H840Zm61-183V61H840V367h61ZM664,434H603V556H542V31A25,25,0,0,1,567,6H700a25,25,0,0,1,25,25V378a25,25,0,0,1-25,25,25,25,0,0,1,25,25V556H664V434Zm0-367H603V373h61V67ZM456,550H323a25,25,0,0,1-25-25V25A25,25,0,0,1,323,0H456a25,25,0,0,1,25,25V367H420V61H359V489h61V428h61v97A25,25,0,0,1,456,550ZM122,525a25,25,0,0,1-25,25H25A25,25,0,0,1,0,525V208a25,25,0,0,1,25-25H158a25,25,0,0,1,25,25V550H122V525Zm0-281H61V489h61V244Zm962,306h-61V147a25,25,0,0,1,25-25h133a25,25,0,0,1,25,25V550h-61V428h-61V550Zm61-183V183h-61V367h61Z"/>
</svg>
