<svg xmlns="http://www.w3.org/2000/svg" width="1084" height="489" viewBox="0 0 1084 489">
  <metadata><?xpacket begin="﻿" id="W5M0MpCehiHzreSzNTczkc9d"?>
<x:xmpmeta xmlns:x="adobe:ns:meta/" x:xmptk="Adobe XMP Core 5.6-c138 79.159824, 2016/09/14-01:09:01        ">
   <rdf:RDF xmlns:rdf="http://www.w3.org/1999/02/22-rdf-syntax-ns#">
      <rdf:Description rdf:about=""/>
   </rdf:RDF>
</x:xmpmeta>
                                                                                                    
                                                                                                    
                                                                                                    
                                                                                                    
                                                                                                    
                                                                                                    
                                                                                                    
                                                                                                    
                                                                                                    
                                                                                                    
                                                                                                    
                                                                                                    
                                                                                                    
                                                                                                    
                                                                                                    
                                                                                                    
                                                                                                    
                                                                                                    
                                                                                                    
                                                                                                    
                           
<?xpacket end="w"?></metadata>
<defs>
    <style>
      .cls-1 {
        fill-rule: evenodd;
      }
    </style>
  </defs>
  <path id="Rectangle_1_copy_4" data-name="Rectangle 1 copy 4" class="cls-1" d="M732,275H573v92H512V239a25,25,0,0,1,25-25H696V61H388v56H604a25,25,0,0,1,25,25v11a25,25,0,0,1-25,25H352a25,25,0,0,1-25-25V25A25,25,0,0,1,352,0H732a25,25,0,0,1,25,25V250A25,25,0,0,1,732,275ZM538,489a25,25,0,0,1-25-25V428h61v36a25,25,0,0,1-25,25H538Zm530.5-225.6H969.9V320.4H932.079V241.092a15.5,15.5,0,0,1,15.5-15.491h98.589V130.8H855.189v34.7H989.127a15.5,15.5,0,0,1,15.5,15.491V187.8a15.5,15.5,0,0,1-15.5,15.49H832.866a15.5,15.5,0,0,1-15.5-15.49V108.491A15.5,15.5,0,0,1,832.866,93H1068.5a15.5,15.5,0,0,1,15.5,15.491V247.908A15.5,15.5,0,0,1,1068.5,263.4ZM948.2,396a15.5,15.5,0,0,1-15.5-15.491V358.2h37.826v22.307A15.5,15.5,0,0,1,955.022,396H948.2ZM251.134,263.4H152.541V320.4H114.716V241.092a15.5,15.5,0,0,1,15.5-15.491h98.593V130.8H37.825v34.7H171.763a15.5,15.5,0,0,1,15.5,15.491V187.8a15.5,15.5,0,0,1-15.5,15.49H15.5A15.5,15.5,0,0,1,0,187.8V108.491A15.5,15.5,0,0,1,15.5,93H251.134a15.5,15.5,0,0,1,15.5,15.491V247.908A15.5,15.5,0,0,1,251.134,263.4ZM130.838,396a15.5,15.5,0,0,1-15.5-15.491V358.2h37.825v22.307A15.5,15.5,0,0,1,137.659,396h-6.821Z"/>
</svg>
