<svg xmlns="http://www.w3.org/2000/svg" width="1582" height="551" viewBox="0 0 1582 551">
  <metadata><?xpacket begin="﻿" id="W5M0MpCehiHzreSzNTczkc9d"?>
<x:xmpmeta xmlns:x="adobe:ns:meta/" x:xmptk="Adobe XMP Core 5.6-c138 79.159824, 2016/09/14-01:09:01        ">
   <rdf:RDF xmlns:rdf="http://www.w3.org/1999/02/22-rdf-syntax-ns#">
      <rdf:Description rdf:about=""/>
   </rdf:RDF>
</x:xmpmeta>
                                                                                                    
                                                                                                    
                                                                                                    
                                                                                                    
                                                                                                    
                                                                                                    
                                                                                                    
                                                                                                    
                                                                                                    
                                                                                                    
                                                                                                    
                                                                                                    
                                                                                                    
                                                                                                    
                                                                                                    
                                                                                                    
                                                                                                    
                                                                                                    
                                                                                                    
                                                                                                    
                           
<?xpacket end="w"?></metadata>
<defs>
    <style>
      .cls-1 {
        fill-rule: evenodd;
      }
    </style>
  </defs>
  <path id="Rectangle_1_copy_8" data-name="Rectangle 1 copy 8" class="cls-1" d="M1557,183a25,25,0,0,1,25,25V524a25,25,0,0,1-25,25H1424a25,25,0,0,1-25-25V208a25,25,0,0,1,25-25h133Zm-97,305h61V244h-61V488ZM909,526a25,25,0,0,1-25,25H812a25,25,0,0,1-25-25V209a25,25,0,0,1,25-25H945a25,25,0,0,1,25,25V551H909V526Zm0-281H848V490h61V245ZM610,1h61V551H513a25,25,0,0,1-25-25V209a25,25,0,0,1,25-25h97V1ZM549,245V490h61V245H549ZM244,184h61v25a25,25,0,0,1,25-25h72a25,25,0,0,1,25,25V550H366V245H305V550H244V184ZM122,526a25,25,0,0,1-25,25H25A25,25,0,0,1,0,526V209a25,25,0,0,1,25-25H158a25,25,0,0,1,25,25V551H122V526Zm0-281H61V490h61V245ZM1030,0h61V550h-61V0Zm148,183h133a25,25,0,0,1,25,25v98h-61V244h-61V367h122V525a25,25,0,0,1-25,25H1153V489h122V428h-97a25,25,0,0,1-25-25V208A25,25,0,0,1,1178,183Z"/>
</svg>
