<svg xmlns="http://www.w3.org/2000/svg" width="32" height="32" viewBox="0 0 32 32">
  <metadata><?xpacket begin="﻿" id="W5M0MpCehiHzreSzNTczkc9d"?>
<x:xmpmeta xmlns:x="adobe:ns:meta/" x:xmptk="Adobe XMP Core 5.6-c138 79.159824, 2016/09/14-01:09:01        ">
   <rdf:RDF xmlns:rdf="http://www.w3.org/1999/02/22-rdf-syntax-ns#">
      <rdf:Description rdf:about=""/>
   </rdf:RDF>
</x:xmpmeta>
                                                                                                    
                                                                                                    
                                                                                                    
                                                                                                    
                                                                                                    
                                                                                                    
                                                                                                    
                                                                                                    
                                                                                                    
                                                                                                    
                                                                                                    
                                                                                                    
                                                                                                    
                                                                                                    
                                                                                                    
                                                                                                    
                                                                                                    
                                                                                                    
                                                                                                    
                                                                                                    
                           
<?xpacket end="w"?></metadata>
<defs>
    <style>
      .cls-1 {
        fill-rule: evenodd;
      }
    </style>
  </defs>
  <path class="cls-1" d="M16,32A16,16,0,1,1,32,16,16,16,0,0,1,16,32ZM16,0.96A15.04,15.04,0,1,0,31.04,16,15.04,15.04,0,0,0,16,.96Zm6.451,15.1a0.22,0.22,0,0,0-.027.009S21.245,17.407,19.7,19c-1.6,1.65-3.661,3.661-3.661,3.661,0,0.035,0,.067.006,0.1L15.988,22.7c-2.435,2.31-4.484,4-5.1,4.017-1.824.039-5.789-2.339-5.767-4.491,0.008-.805,1.972-3.34,4.53-6.2-2.567-2.922-4.518-5.483-4.419-6.188,0.263-1.871,3.849-4.469,5.817-4.4,0.661,0.023,2.655,1.7,5.011,3.985,2.381-2.252,4.391-3.89,5.051-3.9,1.972-.042,5.529,2.612,5.767,4.491C26.966,10.712,25.021,13.206,22.451,16.061Zm0.069,0.218c2.427,2.8,4.263,5.257,4.26,6.041-0.007,2.147-4,4.464-5.817,4.4-0.454-.016-1.677-0.958-3.252-2.392-0.2-3.5,3.65-6.182,4.4-7.316A3.9,3.9,0,0,0,22.52,16.279Z"/>
</svg>
