<svg xmlns="http://www.w3.org/2000/svg" width="1441" height="673" viewBox="0 0 1441 673">
  <metadata><?xpacket begin="﻿" id="W5M0MpCehiHzreSzNTczkc9d"?>
<x:xmpmeta xmlns:x="adobe:ns:meta/" x:xmptk="Adobe XMP Core 5.6-c138 79.159824, 2016/09/14-01:09:01        ">
   <rdf:RDF xmlns:rdf="http://www.w3.org/1999/02/22-rdf-syntax-ns#">
      <rdf:Description rdf:about=""/>
   </rdf:RDF>
</x:xmpmeta>
                                                                                                    
                                                                                                    
                                                                                                    
                                                                                                    
                                                                                                    
                                                                                                    
                                                                                                    
                                                                                                    
                                                                                                    
                                                                                                    
                                                                                                    
                                                                                                    
                                                                                                    
                                                                                                    
                                                                                                    
                                                                                                    
                                                                                                    
                                                                                                    
                                                                                                    
                                                                                                    
                           
<?xpacket end="w"?></metadata>
<defs>
    <style>
      .cls-1 {
        fill-rule: evenodd;
      }
    </style>
  </defs>
  <path id="Rectangle_1_copy_5" data-name="Rectangle 1 copy 5" class="cls-1" d="M1265,428v97a25,25,0,0,1-25,25H1107a25,25,0,0,1-25-25V147a25,25,0,0,1,25-25h133a25,25,0,0,1,25,25V367h-61V183h-61V489h61V428h61Zm124,184v36a25,25,0,0,1-25,25H25A25,25,0,0,1,0,648V612H1328V61H1082V0h359V61h-52V612ZM961,428H900V551H839V142a25,25,0,0,1,25-25H997a25,25,0,0,1,25,25V551H961V428Zm0-250H900V367h61V178ZM469,550V117h61v25a25,25,0,0,1,25-25h72a25,25,0,0,1,25,25V551H591V178H530V550H469Zm306,0H714V61H468V0h542V61H775V550Zm-380,0H262a25,25,0,0,1-25-25V25A25,25,0,0,1,262,0H395a25,25,0,0,1,25,25V525A25,25,0,0,1,395,550ZM359,428V61H298V489h61V428ZM158,550H25A25,25,0,0,1,0,525V25A25,25,0,0,1,25,0H158a25,25,0,0,1,25,25V367H122V61H61V489h61V428h61v97A25,25,0,0,1,158,550Z"/>
</svg>
