<svg xmlns="http://www.w3.org/2000/svg" width="674" height="550" viewBox="0 0 674 550">
  <metadata><?xpacket begin="﻿" id="W5M0MpCehiHzreSzNTczkc9d"?>
<x:xmpmeta xmlns:x="adobe:ns:meta/" x:xmptk="Adobe XMP Core 5.6-c138 79.159824, 2016/09/14-01:09:01        ">
   <rdf:RDF xmlns:rdf="http://www.w3.org/1999/02/22-rdf-syntax-ns#">
      <rdf:Description rdf:about=""/>
   </rdf:RDF>
</x:xmpmeta>
                                                                                                    
                                                                                                    
                                                                                                    
                                                                                                    
                                                                                                    
                                                                                                    
                                                                                                    
                                                                                                    
                                                                                                    
                                                                                                    
                                                                                                    
                                                                                                    
                                                                                                    
                                                                                                    
                                                                                                    
                                                                                                    
                                                                                                    
                                                                                                    
                                                                                                    
                                                                                                    
                           
<?xpacket end="w"?></metadata>
<defs>
    <style>
      .cls-1 {
        fill-rule: evenodd;
      }
    </style>
  </defs>
  <path id="Rectangle_1_copy_13" data-name="Rectangle 1 copy 13" class="cls-1" d="M613,367h61V525a25,25,0,0,1-25,25H491V489H613V428H516a25,25,0,0,1-25-25V25A25,25,0,0,1,516,0H649a25,25,0,0,1,25,25V306H613V61H552V367h61ZM405,550H247V489H369V428H272a25,25,0,0,1-25-25V25A25,25,0,0,1,272,0H405a25,25,0,0,1,25,25V306H369V61H308V367H430V525A25,25,0,0,1,405,550Zm-247,0H25A25,25,0,0,1,0,525V25A25,25,0,0,1,25,0H158a25,25,0,0,1,25,25V367H122V61H61V489h61V428h61v97A25,25,0,0,1,158,550Z"/>
</svg>
