<svg xmlns="http://www.w3.org/2000/svg" width="20.785" height="31.985" viewBox="0 0 206 317">
  <metadata><?xpacket begin="﻿" id="W5M0MpCehiHzreSzNTczkc9d"?>
<x:xmpmeta xmlns:x="adobe:ns:meta/" x:xmptk="Adobe XMP Core 5.6-c138 79.159824, 2016/09/14-01:09:01        ">
   <rdf:RDF xmlns:rdf="http://www.w3.org/1999/02/22-rdf-syntax-ns#">
      <rdf:Description rdf:about=""/>
   </rdf:RDF>
</x:xmpmeta>
                                                                                                    
                                                                                                    
                                                                                                    
                                                                                                    
                                                                                                    
                                                                                                    
                                                                                                    
                                                                                                    
                                                                                                    
                                                                                                    
                                                                                                    
                                                                                                    
                                                                                                    
                                                                                                    
                                                                                                    
                                                                                                    
                                                                                                    
                                                                                                    
                                                                                                    
                                                                                                    
                           
<?xpacket end="w"?></metadata>
<defs>
    <style>
      .cls-1 {
        fill-rule: evenodd;
      }
    </style>
  </defs>
  <path class="cls-1" d="M192,77c-11.473,8.8-61.354,6-61.354,6A13.858,13.858,0,0,0,122,87a15.017,15.017,0,0,0-4,9.617V128.97c31.753,2.247,59.07,6.141,63.216,10.29,10.141,10.151,10.276,55.714.915,65.084-3.557,3.56-27.749,6.739-57,8.682A0.118,0.118,0,0,0,125,213c-1.084.086-2.158,0.164-3.233,0.243q-1.873.117-3.767,0.228v0.037A664.036,664.036,0,0,1,36,214l-0.167.167c-14.059-.91-24.144-2.591-26.79-5.24-10.819-10.829-13.262-61.892,0-75.167,3.023-3.025,13.1-4.91,26.956-5.9V83S34.925,47.075,57,25C83.205-1.205,118,1,118,1s69.5-4.5,82,8S203.473,68.2,192,77ZM118,216.111V317H36V236C41.584,220.255,103.57,216.723,118,216.111Z"/>
</svg>
