<svg xmlns="http://www.w3.org/2000/svg" width="31.884" height="31.683" viewBox="0 0 316 314">
  <metadata><?xpacket begin="﻿" id="W5M0MpCehiHzreSzNTczkc9d"?>
<x:xmpmeta xmlns:x="adobe:ns:meta/" x:xmptk="Adobe XMP Core 5.6-c138 79.159824, 2016/09/14-01:09:01        ">
   <rdf:RDF xmlns:rdf="http://www.w3.org/1999/02/22-rdf-syntax-ns#">
      <rdf:Description rdf:about=""/>
   </rdf:RDF>
</x:xmpmeta>
                                                                                                    
                                                                                                    
                                                                                                    
                                                                                                    
                                                                                                    
                                                                                                    
                                                                                                    
                                                                                                    
                                                                                                    
                                                                                                    
                                                                                                    
                                                                                                    
                                                                                                    
                                                                                                    
                                                                                                    
                                                                                                    
                                                                                                    
                                                                                                    
                                                                                                    
                                                                                                    
                           
<?xpacket end="w"?></metadata>
<defs>
    <style>
      .cls-1 {
        fill-rule: evenodd;
      }
    </style>
  </defs>
  <path class="cls-1" d="M193.123,312.27V243.691a17.73,17.73,0,0,0-10.689-16.3c16.573-1.164,47.519-5.53,64.864-22.17,19.411-19.837,13.424-66.975-5.975-86.47-0.222-.223-0.46-0.432-0.688-0.651,1.387-11.569,3.359-34.233-1.825-38.475-8.373-6.851-35.783,20.348-35.783,20.348l0.218,0.461a202.083,202.083,0,0,0-43.191-4.495V95.679a204.107,204.107,0,0,0-41.729,4.165C116.376,97.961,90.514,73.238,82.4,79.779c-5.071,4.086-3.346,25.4-1.963,37.148-0.551.5-1.1,1.007-1.617,1.53-19.392,19.461-25.377,66.517-5.973,86.32,17.685,16.943,48.322,21.2,64.989,22.254a17.7,17.7,0,0,0-11.615,15.781l-0.035-.007s-18.321,14.864-26.423,15.066S79.6,233.718,53.077,227.738c-6.034-.687-11.2,3.5,0,7.977S78.3,254.957,87.428,266.734s19.237,8.3,38.755-6.2v52.46A158.13,158.13,0,0,1,0,158.1C0,70.783,70.739,0,158,0S316,70.783,316,158.1A158.133,158.133,0,0,1,193.123,312.27Z"/>
</svg>
