<svg xmlns="http://www.w3.org/2000/svg" width="32" height="30" viewBox="0 0 32 30">
  <metadata><?xpacket begin="﻿" id="W5M0MpCehiHzreSzNTczkc9d"?>
<x:xmpmeta xmlns:x="adobe:ns:meta/" x:xmptk="Adobe XMP Core 5.6-c138 79.159824, 2016/09/14-01:09:01        ">
   <rdf:RDF xmlns:rdf="http://www.w3.org/1999/02/22-rdf-syntax-ns#">
      <rdf:Description rdf:about=""/>
   </rdf:RDF>
</x:xmpmeta>
                                                                                                    
                                                                                                    
                                                                                                    
                                                                                                    
                                                                                                    
                                                                                                    
                                                                                                    
                                                                                                    
                                                                                                    
                                                                                                    
                                                                                                    
                                                                                                    
                                                                                                    
                                                                                                    
                                                                                                    
                                                                                                    
                                                                                                    
                                                                                                    
                                                                                                    
                                                                                                    
                           
<?xpacket end="w"?></metadata>
<defs>
    <style>
      .cls-1 {
        fill-rule: evenodd;
      }
    </style>
  </defs>
  <path class="cls-1" d="M31.73,13.005a13.839,13.839,0,0,1-3.341.286l0,0.032c-1.881-.024-7.309.059-8.713,0.081l0.005-.036c-2.139-.009-4.341-0.033-6.427-0.069,0-.01,0-0.034,0-0.034-1.759-.084-7.355-0.176-8.815-0.2l0.008-.057a7.126,7.126,0,0,1-1.5-.184C1.9,12.3.763,5.958,1.924,5.143a15.217,15.217,0,0,1,3.83-.367A24.268,24.268,0,0,1,6.673.608c0.7-.9,7.181-0.717,7.74,0a18.27,18.27,0,0,1-.23,4.085c2.294,0.012,4.656.045,6.858,0.094a24.363,24.363,0,0,1,.92-4.179c0.7-.9,7.181-0.717,7.74,0a21.01,21.01,0,0,1-.278,4.523,5.384,5.384,0,0,1,1.3.192C31.7,5.9,32.367,12.357,31.73,13.005ZM4.183,14.831c0.284-.27,1.242-0.657,4.378-0.75a16.726,16.726,0,0,0,4.494-.453c-0.143,1.034-.29,2.074-0.439,3.1,2.19,0.011,4.447.04,6.571,0.085,0.064-.466.133-0.936,0.2-1.4a0.118,0.118,0,0,0,.011.037l0-.091,0.007-.05c0.1-.257.762-0.8,4.446-1.021a16.552,16.552,0,0,0,4.486-.6c-0.16,1.156-.324,2.321-0.491,3.467a6.073,6.073,0,0,1,1.449.206c0.985,0.58,1.65,7.034,1.014,7.683a16.106,16.106,0,0,1-3.743.3,24.307,24.307,0,0,1-.811,3.82c-0.655.959-7.085,1.259-7.74,0a14.857,14.857,0,0,1,.13-3.755c-2.292-.01-4.656-0.037-6.864-0.078a24.392,24.392,0,0,1-.813,3.833c-0.655.959-7.085,1.259-7.74,0a16.784,16.784,0,0,1,.166-4.123,6.49,6.49,0,0,1-1.379-.175C0.476,24.342-.663,18,0.5,17.184a13.109,13.109,0,0,1,3.4-.351C3.989,16.169,4.088,15.5,4.183,14.831Z"/>
</svg>
