<svg xmlns="http://www.w3.org/2000/svg" width="897" height="552" viewBox="0 0 897 552">
  <metadata><?xpacket begin="﻿" id="W5M0MpCehiHzreSzNTczkc9d"?>
<x:xmpmeta xmlns:x="adobe:ns:meta/" x:xmptk="Adobe XMP Core 5.6-c138 79.159824, 2016/09/14-01:09:01        ">
   <rdf:RDF xmlns:rdf="http://www.w3.org/1999/02/22-rdf-syntax-ns#">
      <rdf:Description rdf:about=""/>
   </rdf:RDF>
</x:xmpmeta>
                                                                                                    
                                                                                                    
                                                                                                    
                                                                                                    
                                                                                                    
                                                                                                    
                                                                                                    
                                                                                                    
                                                                                                    
                                                                                                    
                                                                                                    
                                                                                                    
                                                                                                    
                                                                                                    
                                                                                                    
                                                                                                    
                                                                                                    
                                                                                                    
                                                                                                    
                                                                                                    
                           
<?xpacket end="w"?></metadata>
<defs>
    <style>
      .cls-1 {
        fill-rule: evenodd;
      }
    </style>
  </defs>
  <path id="Rectangle_1_copy_10" data-name="Rectangle 1 copy 10" class="cls-1" d="M714,552V2h61V491H897v61H714ZM602,189H541V550H480V189H419V550H358V128h61v25a25,25,0,0,1,25-25h42a25,25,0,0,1,25,25,25,25,0,0,1,25-25H638a25,25,0,0,1,25,25V550H602V189ZM299,550H238V62H0V0H663V62H299V550ZM183,123V550H122V428H61V550H0V123H61V367h61V123h61Z"/>
</svg>
