<svg xmlns="http://www.w3.org/2000/svg" width="428" height="550" viewBox="0 0 428 550">
  <metadata><?xpacket begin="﻿" id="W5M0MpCehiHzreSzNTczkc9d"?>
<x:xmpmeta xmlns:x="adobe:ns:meta/" x:xmptk="Adobe XMP Core 5.6-c138 79.159824, 2016/09/14-01:09:01        ">
   <rdf:RDF xmlns:rdf="http://www.w3.org/1999/02/22-rdf-syntax-ns#">
      <rdf:Description rdf:about=""/>
   </rdf:RDF>
</x:xmpmeta>
                                                                                                    
                                                                                                    
                                                                                                    
                                                                                                    
                                                                                                    
                                                                                                    
                                                                                                    
                                                                                                    
                                                                                                    
                                                                                                    
                                                                                                    
                                                                                                    
                                                                                                    
                                                                                                    
                                                                                                    
                                                                                                    
                                                                                                    
                                                                                                    
                                                                                                    
                                                                                                    
                           
<?xpacket end="w"?></metadata>
<defs>
    <style>
      .cls-1 {
        fill-rule: evenodd;
      }
    </style>
  </defs>
  <path id="Rectangle_1_copy_12" data-name="Rectangle 1 copy 12" class="cls-1" d="M367,367h61V525a25,25,0,0,1-25,25H245V489H367V428H270a25,25,0,0,1-25-25V25A25,25,0,0,1,270,0H403a25,25,0,0,1,25,25V306H367V61H306V367h61ZM158,550H25A25,25,0,0,1,0,525V366H61V489h61V61H0V0H183V525A25,25,0,0,1,158,550Z"/>
</svg>
