<svg xmlns="http://www.w3.org/2000/svg" width="30.976" height="31.683" viewBox="0 0 307 314">
  <metadata><?xpacket begin="﻿" id="W5M0MpCehiHzreSzNTczkc9d"?>
<x:xmpmeta xmlns:x="adobe:ns:meta/" x:xmptk="Adobe XMP Core 5.6-c138 79.159824, 2016/09/14-01:09:01        ">
   <rdf:RDF xmlns:rdf="http://www.w3.org/1999/02/22-rdf-syntax-ns#">
      <rdf:Description rdf:about=""/>
   </rdf:RDF>
</x:xmpmeta>
                                                                                                    
                                                                                                    
                                                                                                    
                                                                                                    
                                                                                                    
                                                                                                    
                                                                                                    
                                                                                                    
                                                                                                    
                                                                                                    
                                                                                                    
                                                                                                    
                                                                                                    
                                                                                                    
                                                                                                    
                                                                                                    
                                                                                                    
                                                                                                    
                                                                                                    
                                                                                                    
                           
<?xpacket end="w"?></metadata>
<defs>
    <style>
      .cls-1 {
        fill-rule: evenodd;
      }
    </style>
  </defs>
  <path class="cls-1" d="M6.1,112.426c10.936-11.945,65.681-10.452,75.25,0s6.9,173.781-4.374,187.693-56.449,12.421-66.519,0S-4.831,124.371,6.1,112.426Z"/>
  <path class="cls-1" d="M296.229,307.273c-5.57,6.212-54.591,8.972-62.637,0S223,191.685,223,191.685A10.311,10.311,0,0,0,213.383,182H192.617a9.478,9.478,0,0,0-2.289.4c-2.046-19.343-5.817-57.384,9.371-72.218,3.424-1.1,6.957-2.2,10.3-3.185,9.563-2.809,23.19-2.848,31.813-2.508C260.85,105.563,288.875,108.875,299,119,314.907,134.907,301.8,301.061,296.229,307.273ZM180,117s3.218,43.636,3.027,74.237c-0.016.178-.024,0.329-0.027,0.448,0,0-.578,106.87-8.506,115.648s-56.027,9.043-64.2,0S97.185,114.815,105,107s63.091-6.909,69-1,5.886,10.886,5.886,10.886,0.109-.04.3-0.106ZM10.462,303.119C0.392,290.7-4.831,124.371,6.1,112.426s65.681-10.452,75.25,0,6.9,176.781-4.374,190.693S20.531,315.54,10.462,303.119ZM44,86A43,43,0,1,1,87,43,43,43,0,0,1,44,86Z"/>
</svg>
