<svg xmlns="http://www.w3.org/2000/svg" width="482" height="203" viewBox="0 0 482 203">
  <metadata><?xpacket begin="﻿" id="W5M0MpCehiHzreSzNTczkc9d"?>
<x:xmpmeta xmlns:x="adobe:ns:meta/" x:xmptk="Adobe XMP Core 5.6-c138 79.159824, 2016/09/14-01:09:01        ">
   <rdf:RDF xmlns:rdf="http://www.w3.org/1999/02/22-rdf-syntax-ns#">
      <rdf:Description rdf:about=""/>
   </rdf:RDF>
</x:xmpmeta>
                                                                                                    
                                                                                                    
                                                                                                    
                                                                                                    
                                                                                                    
                                                                                                    
                                                                                                    
                                                                                                    
                                                                                                    
                                                                                                    
                                                                                                    
                                                                                                    
                                                                                                    
                                                                                                    
                                                                                                    
                                                                                                    
                                                                                                    
                                                                                                    
                                                                                                    
                                                                                                    
                           
<?xpacket end="w"?></metadata>
<defs>
    <style>
      .cls-1 {
        fill-rule: evenodd;
      }
    </style>
  </defs>
  <path id="Rectangle_1_copy" data-name="Rectangle 1 copy" class="cls-1" d="M476,203H6a6,6,0,0,1-6-6v-2.639a6,6,0,0,1,6-6H467.118V143.972H443.834a6,6,0,0,1-6-6V6a6,6,0,0,1,6-6h31.925a6,6,0,0,1,6,6V115.657H467.118V14.637H452.475v114.7H481.76v59.028H482V197A6,6,0,0,1,476,203Zm-58.81-58.548H393.905v14.157h58.57v14.637H385.264a6,6,0,0,1-6-6V6a6,6,0,0,1,6-6h31.925a6,6,0,0,1,6,6V138.453A6,6,0,0,1,417.189,144.452ZM408.548,14.637H393.905V129.814h14.643V14.637ZM358.62,173.246H335.336V158.609h14.642V144.452H326.694a6,6,0,0,1-6-6V0h14.643V129.814h14.642V0h14.643V167.247A6,6,0,0,1,358.62,173.246Zm-58.57-28.794H276.766v14.157h43.927v14.637H268.125a6,6,0,0,1-6-6V6a6,6,0,0,1,6-6H300.05a6,6,0,0,1,6,6V138.453A6,6,0,0,1,300.05,144.452ZM291.408,14.637H276.766V129.814h14.642V14.637ZM232.839,144.452H218.2v28.794H203.554V6a6,6,0,0,1,6-6H241.48a6,6,0,0,1,6,6V131.254a6,6,0,0,1-6,6,6,6,0,0,1,6,6v30.474H232.839V144.452Zm0-129.815H218.2V129.814h14.643V14.637ZM182.91,173.246H6a6,6,0,0,1-6-6V6A6,6,0,0,1,6,0H182.91a6,6,0,0,1,6,6V167.247A6,6,0,0,1,182.91,173.246ZM86.894,72.226H29.285V58.069h57.61V29.274h0V14.637H17.643a3,3,0,0,0-3,3V29.274h0V86.863H86.894V72.226Zm0,86.383V143.252a6,6,0,0,0-6-6,6,6,0,0,0,6-6V101.02H14.642v28.794h0v14.638h0v11.157h0a3,3,0,0,0,3,3H29.285V144.452H72.252v14.4H86.894v-0.24ZM116.179,14.637H101.537V43.431h14.642V14.637Zm0,43.432H101.537v100.54h14.642V58.069Zm58.09,97.54V143.972h0V101.02H159.626v42.952H145.464V29.274h14.162V86.863h14.643V29.274h0V17.637a3,3,0,0,0-3-3H130.822V29.274h0V158.609h40.446a3,3,0,0,0,3-3h0ZM29.285,115.657H72.252v14.157H29.285V115.657Zm0-86.383H72.252V43.431H29.285V29.274Z"/>
</svg>
