<svg xmlns="http://www.w3.org/2000/svg" width="1277" height="550" viewBox="0 0 1277 550">
  <metadata><?xpacket begin="﻿" id="W5M0MpCehiHzreSzNTczkc9d"?>
<x:xmpmeta xmlns:x="adobe:ns:meta/" x:xmptk="Adobe XMP Core 5.6-c138 79.159824, 2016/09/14-01:09:01        ">
   <rdf:RDF xmlns:rdf="http://www.w3.org/1999/02/22-rdf-syntax-ns#">
      <rdf:Description rdf:about=""/>
   </rdf:RDF>
</x:xmpmeta>
                                                                                                    
                                                                                                    
                                                                                                    
                                                                                                    
                                                                                                    
                                                                                                    
                                                                                                    
                                                                                                    
                                                                                                    
                                                                                                    
                                                                                                    
                                                                                                    
                                                                                                    
                                                                                                    
                                                                                                    
                                                                                                    
                                                                                                    
                                                                                                    
                                                                                                    
                                                                                                    
                           
<?xpacket end="w"?></metadata>
<defs>
    <style>
      .cls-1 {
        fill-rule: evenodd;
      }
    </style>
  </defs>
  <path id="Rectangle_1_copy_14" data-name="Rectangle 1 copy 14" class="cls-1" d="M1277,550H1094V0h61V489h122v61Zm-247-25a25,25,0,0,1-25,25H872a25,25,0,0,1-25-25V25A25,25,0,0,1,872,0h133a25,25,0,0,1,25,25V404h31v61h-31v60Zm-61-60H939V404h30V61H908V489h61V465ZM768,550H610V489H732V428H635a25,25,0,0,1-25-25V25A25,25,0,0,1,635,0H768a25,25,0,0,1,25,25V306H732V61H671V367H793V525A25,25,0,0,1,768,550Zm-244,0H426V489h62V428H391a25,25,0,0,1-25-25V183h61V367h61V183h61V525A25,25,0,0,1,524,550ZM244,61H183V550H122V61H61V550H0V0H61V25A25,25,0,0,1,86,0h42a25,25,0,0,1,25,25A25,25,0,0,1,178,0H280a25,25,0,0,1,25,25V550H244V61Z"/>
</svg>
