<svg xmlns="http://www.w3.org/2000/svg" width="371" height="113" viewBox="0 0 371 113">
  <metadata><?xpacket begin="﻿" id="W5M0MpCehiHzreSzNTczkc9d"?>
<x:xmpmeta xmlns:x="adobe:ns:meta/" x:xmptk="Adobe XMP Core 5.6-c138 79.159824, 2016/09/14-01:09:01        ">
   <rdf:RDF xmlns:rdf="http://www.w3.org/1999/02/22-rdf-syntax-ns#">
      <rdf:Description rdf:about=""/>
   </rdf:RDF>
</x:xmpmeta>
                                                                                                    
                                                                                                    
                                                                                                    
                                                                                                    
                                                                                                    
                                                                                                    
                                                                                                    
                                                                                                    
                                                                                                    
                                                                                                    
                                                                                                    
                                                                                                    
                                                                                                    
                                                                                                    
                                                                                                    
                                                                                                    
                                                                                                    
                                                                                                    
                                                                                                    
                                                                                                    
                           
<?xpacket end="w"?></metadata>
<defs>
    <style>
      .cls-1 {
        fill-rule: evenodd;
      }
    </style>
  </defs>
  <path class="cls-1" d="M358.508,112.6V75.338H334.144V0.209h12.489V62.85h11.875V0.209H371V112.6h-12.49Zm-61.219.2H284.8V0.209h37.468V112.8H297.289Zm12.49-24.974V12.7h-12.49v87.616h12.49V87.825ZM260.435,75.338H236.07V0.209h12.49V62.85h11.875V0.209h12.489V112.6H260.435V75.338ZM199.216,88.03h12.489V113H199.216V88.03Zm0-87.82h12.489V75.338H199.216V0.209ZM182.222,112.6H124.893V100.107h49.958V87.62h-19.86a5.118,5.118,0,0,1-5.119-5.118V5.122A5.118,5.118,0,0,1,154.991,0h27.231a5.118,5.118,0,0,1,5.118,5.118V62.646H174.851V12.492h-12.49V75.133H187.34v32.344A5.118,5.118,0,0,1,182.222,112.6Zm-49.958-24.77H112.4V112.8H99.914V5.327A5.118,5.118,0,0,1,105.032.209h27.232a5.118,5.118,0,0,1,5.118,5.118v77.38A5.118,5.118,0,0,1,132.264,87.825ZM124.893,12.7H112.4V75.338h12.49V12.7ZM82.306,112.8H55.074a5.118,5.118,0,0,1-5.119-5.117V5.327A5.118,5.118,0,0,1,55.074.209H82.306a5.118,5.118,0,0,1,5.119,5.118V107.682A5.118,5.118,0,0,1,82.306,112.8ZM74.935,87.825V12.7H62.445v87.616h12.49V87.825ZM32.347,112.8H5.116A5.118,5.118,0,0,1,0,107.682V5.327A5.118,5.118,0,0,1,5.116.209H32.347a5.118,5.118,0,0,1,5.119,5.118V107.682A5.118,5.118,0,0,1,32.347,112.8ZM24.977,87.825V12.7H12.487v87.616h12.49V87.825Z"/>
</svg>
