<svg xmlns="http://www.w3.org/2000/svg" width="666" height="550" viewBox="0 0 666 550">
  <metadata><?xpacket begin="﻿" id="W5M0MpCehiHzreSzNTczkc9d"?>
<x:xmpmeta xmlns:x="adobe:ns:meta/" x:xmptk="Adobe XMP Core 5.6-c138 79.159824, 2016/09/14-01:09:01        ">
   <rdf:RDF xmlns:rdf="http://www.w3.org/1999/02/22-rdf-syntax-ns#">
      <rdf:Description rdf:about=""/>
   </rdf:RDF>
</x:xmpmeta>
                                                                                                    
                                                                                                    
                                                                                                    
                                                                                                    
                                                                                                    
                                                                                                    
                                                                                                    
                                                                                                    
                                                                                                    
                                                                                                    
                                                                                                    
                                                                                                    
                                                                                                    
                                                                                                    
                                                                                                    
                                                                                                    
                                                                                                    
                                                                                                    
                                                                                                    
                                                                                                    
                           
<?xpacket end="w"?></metadata>
<defs>
    <style>
      .cls-1 {
        fill-rule: evenodd;
      }
    </style>
  </defs>
  <path id="Rectangle_1_copy_6" data-name="Rectangle 1 copy 6" class="cls-1" d="M641,428H544V550H483V25A25,25,0,0,1,508,0H641a25,25,0,0,1,25,25V403A25,25,0,0,1,641,428ZM605,61H544V367h61V61ZM358,428H297V550H236V0h61V367h61V0h61V550H358V428Zm-200,0H61V550H0V25A25,25,0,0,1,25,0H158a25,25,0,0,1,25,25V403A25,25,0,0,1,158,428ZM122,61H61V367h61V61Z"/>
</svg>
