<svg xmlns="http://www.w3.org/2000/svg" width="31.979" height="31.979" viewBox="0 0 254 254">
  <metadata><?xpacket begin="﻿" id="W5M0MpCehiHzreSzNTczkc9d"?>
<x:xmpmeta xmlns:x="adobe:ns:meta/" x:xmptk="Adobe XMP Core 5.6-c138 79.159824, 2016/09/14-01:09:01        ">
   <rdf:RDF xmlns:rdf="http://www.w3.org/1999/02/22-rdf-syntax-ns#">
      <rdf:Description rdf:about=""/>
   </rdf:RDF>
</x:xmpmeta>
                                                                                                    
                                                                                                    
                                                                                                    
                                                                                                    
                                                                                                    
                                                                                                    
                                                                                                    
                                                                                                    
                                                                                                    
                                                                                                    
                                                                                                    
                                                                                                    
                                                                                                    
                                                                                                    
                                                                                                    
                                                                                                    
                                                                                                    
                                                                                                    
                                                                                                    
                                                                                                    
                           
<?xpacket end="w"?></metadata>
<defs>
    <style>
      .cls-1 {
        fill-rule: evenodd;
      }
    </style>
  </defs>
  <path id="Shape_1_copy" data-name="Shape 1 copy" class="cls-1" d="M247.8,172.041c-1.788,2.593-18.867,4.62-43.138,5.977l-0.049-.042C184,160.636,185.339,82.8,184.923,73.918c33.7,1.215,59.662,3.624,62.877,7.229C257.5,92.023,254.469,162.373,247.8,172.041ZM179,73.67c2.978,36.214,0,105.309,0,105.309l0.412,0.145C178.261,215.228,175.79,243.63,172,247c-10.889,9.681-81.321,6.655-91,0-3.412-2.346-5.846-31.033-7.065-67.753-33.92-1.094-60.418-3.432-64.6-7.206-12.731-11.48-12.125-80.018,0-90.894,4.017-3.6,30.488-6.012,64.441-7.228C74.86,39.855,77.2,13.2,81,9,92.493-3.706,161.111-3.1,172,9c3.558,3.954,5.952,29.709,7.185,62.922A5.178,5.178,0,0,0,179,73.67Z"/>
</svg>
