<svg xmlns="http://www.w3.org/2000/svg" width="1030" height="676" viewBox="0 0 1030 676">
  <metadata><?xpacket begin="﻿" id="W5M0MpCehiHzreSzNTczkc9d"?>
<x:xmpmeta xmlns:x="adobe:ns:meta/" x:xmptk="Adobe XMP Core 5.6-c138 79.159824, 2016/09/14-01:09:01        ">
   <rdf:RDF xmlns:rdf="http://www.w3.org/1999/02/22-rdf-syntax-ns#">
      <rdf:Description rdf:about=""/>
   </rdf:RDF>
</x:xmpmeta>
                                                                                                    
                                                                                                    
                                                                                                    
                                                                                                    
                                                                                                    
                                                                                                    
                                                                                                    
                                                                                                    
                                                                                                    
                                                                                                    
                                                                                                    
                                                                                                    
                                                                                                    
                                                                                                    
                                                                                                    
                                                                                                    
                                                                                                    
                                                                                                    
                                                                                                    
                                                                                                    
                           
<?xpacket end="w"?></metadata>
<defs>
    <style>
      .cls-1 {
        fill-rule: evenodd;
      }
    </style>
  </defs>
  <path id="Rectangle_1_copy_9" data-name="Rectangle 1 copy 9" class="cls-1" d="M1030,63V308H969V63H908V369h122V651a25,25,0,0,1-25,25H25A25,25,0,0,1,0,651V615H969V430H872a25,25,0,0,1-25-25V27A25,25,0,0,1,872,2h133a25,25,0,0,1,25,25V63ZM787,491H909v61H787v-1H726V1h61V491ZM671,551H610V1h61V551Zm-122,1H488V185h61V552ZM488,1h61V123H488V1ZM244,551V1h61V367h61V1h61V373a25,25,0,0,1-25,25,25,25,0,0,1,25,25V551H366V428H305V551H244Zm-86-.775H0v-61H122v-61H25a25,25,0,0,1-25-25v-378a25,25,0,0,1,25-25H158a25,25,0,0,1,25,25v281H122v-245H61v306H183v158A25,25,0,0,1,158,550.225Z"/>
</svg>
