<svg xmlns="http://www.w3.org/2000/svg" width="1289" height="674" viewBox="0 0 1289 674">
  <metadata><?xpacket begin="﻿" id="W5M0MpCehiHzreSzNTczkc9d"?>
<x:xmpmeta xmlns:x="adobe:ns:meta/" x:xmptk="Adobe XMP Core 5.6-c138 79.159824, 2016/09/14-01:09:01        ">
   <rdf:RDF xmlns:rdf="http://www.w3.org/1999/02/22-rdf-syntax-ns#">
      <rdf:Description rdf:about=""/>
   </rdf:RDF>
</x:xmpmeta>
                                                                                                    
                                                                                                    
                                                                                                    
                                                                                                    
                                                                                                    
                                                                                                    
                                                                                                    
                                                                                                    
                                                                                                    
                                                                                                    
                                                                                                    
                                                                                                    
                                                                                                    
                                                                                                    
                                                                                                    
                                                                                                    
                                                                                                    
                                                                                                    
                                                                                                    
                                                                                                    
                           
<?xpacket end="w"?></metadata>
<defs>
    <style>
      .cls-1 {
        fill-rule: evenodd;
      }
    </style>
  </defs>
  <path id="Rectangle_1_copy_11" data-name="Rectangle 1 copy 11" class="cls-1" d="M808,25V372a25,25,0,0,1-25,25,25,25,0,0,1,25,25V550H747V428H686V550H625V25A25,25,0,0,1,650,0H783A25,25,0,0,1,808,25ZM747,61H686V367h61V61ZM538,0.212a25,25,0,0,1,25,25v500a25,25,0,0,1-25,25H405a25,25,0,0,1-25-25v-500a25,25,0,0,1,25-25H538Zm-97,489h61v-428H441v428Zm-380,0h61v-489h61v489h61v-489h61v525a25,25,0,0,1-25,25H178a25,25,0,0,1-25-25,25,25,0,0,1-25,25H25a25,25,0,0,1-25-25v-525H61v489Zm992-67.65V489h122v61H1053v-0.437H992v-123H931v123H870v-550h61v366h61v-366h61v372a25,25,0,0,1-25,25A25,25,0,0,1,1053,421.562ZM1228,428h-97a25,25,0,0,1-25-25V25a25,25,0,0,1,25-25h133a25,25,0,0,1,25,25V306h-61V61h-61V367h122V649a25,25,0,0,1-25,25H25A25,25,0,0,1,0,649V613H1228V428Z"/>
</svg>
